# xmcd
#
# Track frame offsets:
#	150
#	14080
#	28727
#	44464
#	59707
#	71385
#	86350
#	97897
#	109245
#	126310
#	138140
#	153940
#
# Disc length: 2237 seconds
#
# Revision: 0
# Processed by: cddbd v1.4PL0 Copyright (c) Steve Scherf et al.
# Submitted via: dBpowerAMP V4.0
#
DISCID=a008bb0c
DTITLE=Chad Simmons - Heaven Sent
DYEAR=2002
DGENRE=Country
TTITLE0=Heaven Sent
TTITLE1=You Are My Angel
TTITLE2=I Will
TTITLE3=God, Didn't Mean To Let Her Go
TTITLE4=She Ain't Rose
TTITLE5=Do You Miss Me, Babe?
TTITLE6=Since I Been Holdin' An Angel (A Little Heavn's Rubbin' Off On Me)
TTITLE7=Let It Be Me
TTITLE8=Feels Like Mississippi
TTITLE9=One Bridge Left To Burn
TTITLE10=All's Quiet On The Home Front
TTITLE11=A World Of Hurt
EXTD=HitPros Records
EXTT0=
EXTT1=
EXTT2=
EXTT3=
EXTT4=
EXTT5=
EXTT6=
EXTT7=
EXTT8=
EXTT9=
EXTT10=
EXTT11=
PLAYORDER=
